HIERARCHY
ROOT Hips
{
    OFFSET 0.000000 0.000000 0.000000
    CHANNELS 6 Xposition Yposition Zposition Zrotation Xrotation Yrotation
    JOINT Spine
    {
        OFFSET -0.000000 14.517291 0.000000
        CHANNELS 3 Zrotation Xrotation Yrotation
        JOINT Spine1
        {
            OFFSET -0.000000 37.558300 0.000000
            CHANNELS 3 Zrotation Xrotation Yrotation
            JOINT Neck
            {
                OFFSET -0.000000 37.404057 3.400369
                CHANNELS 3 Zrotation Xrotation Yrotation
                JOINT Head
                {
                    OFFSET -0.000000 24.785618 -3.540803
                    CHANNELS 3 Zrotation Xrotation Yrotation
                    End Site
                    {
                        OFFSET -0.000000 35.408028 0.000000
                    }
                }
            }
            JOINT LeftShoulder
            {
                OFFSET 6.992933 33.973492 -0.192664
                CHANNELS 3 Zrotation Xrotation Yrotation
                JOINT LeftArm
                {
                    OFFSET 21.527611 0.000000 0.000000
                    CHANNELS 3 Zrotation Xrotation Yrotation
                    JOINT LeftForeArm
                    {
                        OFFSET 56.353916 0.000000 0.000000
                        CHANNELS 3 Zrotation Xrotation Yrotation
                        JOINT LeftHand
                        {
                            OFFSET 47.774071 0.000000 0.000000
                            CHANNELS 3 Zrotation Xrotation Yrotation
                            End Site
                            {
                                OFFSET 26.556021 0.000000 0.000000
                            }
                        }
                    }
                }
            }
            JOINT RightShoulder
            {
                OFFSET -7.065357 33.973492 -0.192664
                CHANNELS 3 Zrotation Xrotation Yrotation
                JOINT RightArm
                {
                    OFFSET -21.527611 0.000000 0.000000
                    CHANNELS 3 Zrotation Xrotation Yrotation
                    JOINT RightForeArm
                    {
                        OFFSET -56.353916 0.000000 0.000000
                        CHANNELS 3 Zrotation Xrotation Yrotation
                        JOINT RightHand
                        {
                            OFFSET -47.774071 0.000000 0.000000
                            CHANNELS 3 Zrotation Xrotation Yrotation
                            End Site
                            {
                                OFFSET -26.556021 0.000000 0.000000
                            }
                        }
                    }
                }
            }
        }
    }
    JOINT LeftUpLeg
    {
        OFFSET 17.704014 0.000000 0.000000
        CHANNELS 3 Zrotation Xrotation Yrotation
        JOINT LeftLeg
        {
            OFFSET -0.000000 -81.181816 0.000000
            CHANNELS 3 Zrotation Xrotation Yrotation
            JOINT LeftFoot
            {
                OFFSET -0.000000 -62.821102 0.000000
                CHANNELS 3 Zrotation Xrotation Yrotation
                JOINT LeftToeBase
                {
                    OFFSET -0.000000 -11.507608 26.556021
                    CHANNELS 3 Zrotation Xrotation Yrotation
                    End Site
                    {
                        OFFSET -0.000000 0.000000 7.081605
                    }
                }
            }
        }
    }
    JOINT RightUpLeg
    {
        OFFSET -17.704014 0.000000 0.000000
        CHANNELS 3 Zrotation Xrotation Yrotation
        JOINT RightLeg
        {
            OFFSET -0.000000 -81.181816 0.000000
            CHANNELS 3 Zrotation Xrotation Yrotation
            JOINT RightFoot
            {
                OFFSET -0.000000 -62.821102 0.000000
                CHANNELS 3 Zrotation Xrotation Yrotation
                JOINT RightToeBase
                {
                    OFFSET -0.000000 -11.507608 26.556021
                    CHANNELS 3 Zrotation Xrotation Yrotation
                    End Site
                    {
                        OFFSET -0.000000 0.000000 7.081605
                    }
                }
            }
        }
    }
}
MOTION
Frames:    9
Frame Time:    0.008333
-7.367414    151.789398    -14.903012    0.565829    0.269084    20.221287    -2.356166    -1.786290    5.443403    -2.994060    7.504726    2.023439    1.795673    -5.700274    -9.819012    10.383286    2.743436    -9.358565    4.555578    6.199394    -16.245970    -30.990026    11.639578    -68.774628    10.254525    -54.834846    -101.852158    -14.250917    -44.901798    -21.883327    -7.103204    4.428310    3.231156    26.401442    -10.214978    64.583641    -3.962248    -24.153681    18.410381    13.693686    -19.085361    38.530350    1.421345    -32.802128    -25.861904    -10.039183    20.461382    -21.428415    -10.564974    4.462628    29.737530    0.000000    0.000000    0.000000    1.440440    11.058788    -11.848970    3.020630    25.510458    -0.489900    -3.165122    -32.185764    -6.392397    0.000000    0.000000    0.000000    
-7.350152    151.799255    -14.894745    0.562234    0.272577    20.186684    -1.703167    -0.529448    4.411891    -3.628329    5.352124    1.643624    0.325550    -5.332287    -9.454938    11.662027    3.667196    -8.625538    2.961266    6.580867    -14.515616    -29.951456    11.946724    -67.254929    8.999753    -54.246552    -103.446503    -13.852059    -45.162548    -21.439068    -7.664597    5.227993    4.824915    27.684505    -10.512076    64.908333    -3.799919    -23.494488    18.558844    13.242583    -18.603668    38.298580    1.429648    -32.801136    -25.835686    -10.032441    20.477190    -21.429598    -10.555731    4.454302    29.750504    0.000000    0.000000    0.000000    1.431388    11.073650    -11.822133    3.027006    25.470318    -0.464427    -3.195136    -32.175526    -6.426408    0.000000    0.000000    0.000000    
-7.326150    151.810364    -14.885494    0.560833    0.271490    20.148376    -2.363035    -1.794469    5.519008    -2.883260    7.428085    2.039534    1.661387    -5.564723    -9.824130    10.532822    2.670010    -9.310711    4.428277    6.050797    -16.027714    -30.724195    11.051051    -67.614227    8.670246    -53.622509    -103.211899    -13.839663    -44.744373    -21.470978    -7.190062    4.482668    3.250856    26.384407    -10.266048    64.437439    -3.952109    -24.126940    18.439507    13.644653    -19.077919    38.505077    1.439340    -32.791042    -25.830675    -10.034523    20.483505    -21.401524    -10.556944    4.441110    29.756470    0.000000    0.000000    0.000000    1.414547    11.096633    -11.785641    3.031693    25.427731    -0.459028    -3.173084    -32.151768    -6.400918    0.000000    0.000000    0.000000    
-7.305793    151.820297    -14.874983    0.552694    0.272933    20.115156    -1.673684    -0.575672    4.502299    -3.541118    5.326113    1.669100    0.127527    -5.145636    -9.477991    11.882320    3.542323    -8.573217    2.838859    6.390830    -14.329035    -29.617008    11.478072    -66.122940    7.428334    -53.138573    -104.772339    -13.477241    -45.177406    -21.183321    -7.786609    5.289965    4.853063    27.678621    -10.559929    64.772270    -3.836129    -23.498589    18.556099    13.223736    -18.610498    38.283836    1.459897    -32.789356    -25.839258    -10.052494    20.489359    -21.383308    -10.535213    4.429774    29.767456    0.000000    0.000000    0.000000    1.410260    11.119138    -11.750796    3.033779    25.373718    -0.444134    -3.190085    -32.123737    -6.404772    0.000000    0.000000    0.000000    
-7.286276    151.830948    -14.865711    0.541794    0.274774    20.084139    -2.358886    -1.807027    5.587250    -2.748945    7.329175    2.051201    1.483780    -5.406319    -9.835850    10.686391    2.609496    -9.261743    4.291514    5.885603    -15.781754    -30.438650    10.773688    -66.476349    7.032214    -52.560612    -104.676758    -13.524064    -44.869701    -21.223755    -7.304784    4.553424    3.292371    26.383625    -10.308721    64.313774    -3.967284    -24.136963    18.428362    13.638892    -19.088982    38.499123    1.474784    -32.786301    -25.827372    -10.048240    20.496986    -21.374626    -10.537891    4.407533    29.788643    0.000000    0.000000    0.000000    1.406819    11.139765    -11.740337    3.037361    25.317966    -0.445653    -3.169392    -32.087845    -6.385084    0.000000    0.000000    0.000000    
-7.264400    151.847244    -14.856380    0.535204    0.268288    20.054409    -1.638394    -0.617812    4.587640    -3.443060    5.260067    1.691163    -0.052633    -4.908095    -9.502559    12.042409    3.417415    -8.532918    2.729595    6.230014    -14.131129    -29.263948    11.304398    -65.022072    5.994877    -52.272568    -106.053146    -13.502797    -45.380283    -20.953621    -7.891217    5.368837    4.927434    27.673525    -10.628686    64.627968    -3.872518    -23.532410    18.504137    13.249159    -18.631647    38.294922    1.487981    -32.772240    -25.828876    -10.049941    20.499249    -21.349695    -10.534941    4.403341    29.794012    0.000000    0.000000    0.000000    1.403170    11.166280    -11.720716    3.037918    25.272034    -0.434564    -3.158564    -32.056442    -6.380300    0.000000    0.000000    0.000000    
-7.241687    151.862091    -14.851594    0.524178    0.269901    20.020632    -2.323431    -1.821381    5.662181    -2.651707    7.249214    2.067988    1.339659    -5.257661    -9.842353    10.773855    2.552396    -9.222570    4.165052    5.696986    -15.500199    -30.157730    10.700551    -65.423126    5.708706    -51.687214    -105.900368    -13.505092    -44.989777    -21.012190    -7.394742    4.596532    3.330630    26.389029    -10.341807    64.220245    -4.014709    -24.187439    18.362267    13.707297    -19.112333    38.506557    1.506503    -32.768009    -25.825996    -10.051643    20.501213    -21.346510    -10.528765    4.394876    29.807402    0.000000    0.000000    0.000000    1.397877    11.182276    -11.680606    3.051856    25.222576    -0.475608    -3.125337    -32.024845    -6.335010    0.000000    0.000000    0.000000    
-7.220072    151.875443    -14.845610    0.513530    0.271634    19.993368    -1.601900    -0.651142    4.695920    -3.367928    5.173837    1.721270    -0.105091    -4.741855    -9.500143    12.028275    3.363554    -8.516373    2.665535    6.102290    -13.948958    -29.145727    11.098150    -63.972977    4.698555    -51.193157    -107.190598    -13.295825    -45.320415    -20.805971    -7.908362    5.406715    4.951082    27.661680    -10.687331    64.507500    -3.871816    -23.557829    18.437204    13.297337    -18.644114    38.294868    1.521196    -32.758980    -25.831856    -10.056555    20.488276    -21.294401    -10.530731    4.390670    29.805506    0.000000    0.000000    0.000000    1.393815    11.196193    -11.662529    3.050965    25.178322    -0.460795    -3.133772    -31.997299    -6.326653    0.000000    0.000000    0.000000    
-7.194294    151.889374    -14.840621    0.506601    0.270400    19.962910    -1.583795    -0.662327    4.754165    -3.333194    5.136990    1.738050    -0.097567    -4.689008    -9.494830    11.960544    3.353464    -8.518925    2.634586    6.071471    -13.879223    -29.038227    11.055630    -63.441254    4.336338    -50.824085    -107.564659    -13.403875    -45.213089    -20.795630    -7.902614    5.405066    4.940313    27.646362    -10.689482    64.460014    -3.885345    -23.589415    18.397783    13.306012    -18.675875    38.272327    1.536947    -32.745171    -25.826931    -10.056821    20.478012    -21.288572    -10.528674    4.382639    29.813700    0.000000    0.000000    0.000000    1.387148    11.211813    -11.649895    3.051086    25.140034    -0.457341    -3.120228    -31.962053    -6.320892    0.000000    0.000000    0.000000    
